<?xml version="1.0" encoding="UTF-8" standalone="no"?>
<!-- Created with Inkscape (http://www.inkscape.org/) -->

<svg
   width="55mm"
   height="55mm"
   viewBox="0 0 207.87401 207.87401"
   version="1.1"
   id="svg5"
   sodipodi:docname="tifr.svg"
   inkscape:version="1.1.1 (3bf5ae0d25, 2021-09-20)"
   xmlns:inkscape="http://www.inkscape.org/namespaces/inkscape"
   xmlns:sodipodi="http://sodipodi.sourceforge.net/DTD/sodipodi-0.dtd"
   xmlns="http://www.w3.org/2000/svg"
   xmlns:svg="http://www.w3.org/2000/svg">
  <sodipodi:namedview
     id="namedview6"
     pagecolor="#ffffff"
     bordercolor="#999999"
     borderopacity="1"
     inkscape:pageshadow="0"
     inkscape:pageopacity="1"
     inkscape:pagecheckerboard="0"
     inkscape:document-units="mm"
     showgrid="false"
     inkscape:zoom="1.7294129"
     inkscape:cx="72.857096"
     inkscape:cy="92.516947"
     inkscape:window-width="1920"
     inkscape:window-height="986"
     inkscape:window-x="-11"
     inkscape:window-y="-11"
     inkscape:window-maximized="1"
     inkscape:current-layer="svg5" />
  <defs
     id="defs2" />
  <g
     id="layer1">
    <path
       style="fill:#000000;stroke-width:1.0972"
       d="M 6.7055133,137.59033 C 3.8846025,134.19136 0.65335195,116.59042 0.6274142,104.48237 0.58486487,84.61722 6.435505,70.319383 20.751786,55.302329 30.97272,44.581085 35.86727,41.635943 26.530935,51.824906 18.725343,60.343335 11.781966,73.173049 9.7934051,82.751896 c -3.013481,14.51586 0.1282909,33.640224 8.1151979,49.398234 1.595605,3.14809 2.9011,5.98709 2.9011,6.30889 0,1.32197 -12.947943,0.5245 -14.1041897,-0.86869 z M 32.789194,133.57047 C 26.32971,126.69026 19.186552,113.08251 16.872314,103.24873 14.285463,92.256558 15.259346,80.738429 19.55105,71.567268 c 1.835766,-3.922942 3.523523,-7.132621 3.750571,-7.132621 0.227049,0 -0.792051,3.579607 -2.264666,7.954683 -2.288712,6.799671 -2.598701,9.35833 -2.134921,17.621736 0.462869,8.247175 1.11878,10.832954 4.465712,17.605004 2.157735,4.36589 6.368739,10.48867 9.357788,13.60618 6.155818,6.4204 17.320934,14.02978 22.138071,15.08779 6.927895,1.52163 4.16563,2.73405 -6.228993,2.73405 H 37.928095 Z m 69.494206,4.4635 c -8.18051,-2.07864 -10.155845,-6.34026 -10.155845,-21.91031 v -12.05743 l -3.930238,-0.34053 -3.930238,-0.34053 9.69052,-11.134065 9.690541,-11.13405 0.32543,6.423934 0.32544,6.423928 7.90353,0.321336 7.90356,0.321336 -0.0472,4.388791 -0.0472,4.38879 -7.90747,0.32236 -7.90747,0.32237 v 10.13118 c 0,12.8797 1.39762,15.42822 8.08691,14.74623 2.49197,-0.25407 5.3949,-0.84561 6.45096,-1.31456 1.67051,-0.74179 1.92009,-0.21083 1.92009,4.08477 0,3.49442 -0.50826,5.13244 -1.73914,5.60477 -3.18731,1.22308 -13.02686,1.66778 -16.63216,0.75168 z m 23.53943,0.32652 c -0.42865,-0.42863 -0.77934,-10.57182 -0.77934,-22.54042 V 94.058991 h 7.15451 7.15449 l -0.29701,22.218239 -0.29702,22.21826 -6.07815,0.32217 c -3.34298,0.17719 -6.42885,-0.0285 -6.85748,-0.45717 z m 21.8425,-0.2044 c -0.30185,-0.4884 -0.5457,-8.26478 -0.54189,-17.28086 0.007,-15.72318 -0.0857,-16.40719 -2.25893,-16.74348 -1.89597,-0.29337 -2.26586,-1.14416 -2.26586,-5.211691 0,-4.030545 0.35332,-4.861068 2.06798,-4.861068 1.68424,0 2.20813,-1.121863 2.82335,-6.045922 1.28818,-10.310154 8.20786,-15.898038 19.68714,-15.898038 h 6.14307 v 5.485988 5.485989 H 169.48 c -4.79085,0 -8.22899,3.208925 -8.22899,7.680389 0,3.030351 0.30478,3.291594 3.84019,3.291594 3.81988,0 3.8402,0.02611 3.8402,4.937389 0,4.91127 -0.0203,4.93739 -3.8402,4.93739 h -3.84019 v 17.55515 17.55517 h -6.51843 c -3.58513,0 -6.7654,-0.39959 -7.06725,-0.888 z m 24.55766,-21.60456 V 93.954274 l 6.85749,0.326658 6.85748,0.326657 v 4.664506 c 0,2.565475 0.13174,4.663865 0.29276,4.663095 0.16102,-7.8e-4 2.42164,-2.22325 5.02361,-4.93881 3.87245,-4.041516 5.43972,-4.937389 8.63757,-4.937389 2.1487,0 4.94138,0.864043 6.20596,1.920096 2.0769,1.734406 2.182,2.370462 1.0868,6.577263 l -1.21246,4.65716 -5.73792,-0.67438 c -5.29794,-0.62267 -6.02396,-0.41892 -9.46852,2.65727 l -3.7306,3.33164 -0.5486,12.98372 -0.5486,12.98373 -6.85748,0.32665 -6.85749,0.32665 z m -110.81327,8.5164 c -5.238235,-0.97707 -16.170549,-6.6133 -20.61399,-10.62768 -8.604012,-7.77321 -14.653198,-20.917888 -14.408628,-31.309463 0.08226,-3.494842 0.238783,-3.279375 1.562367,2.150622 4.816135,19.758161 15.424688,30.078871 33.36383,32.458581 5.457246,0.72394 5.578708,0.82058 5.578708,4.43889 0,3.78227 -0.181318,3.87782 -5.482287,2.88905 z m 65.76685,-39.615545 c -3.08405,-2.49731 -3.33133,-8.000319 -0.5001,-11.1288 2.63326,-2.909716 8.36434,-2.909716 10.99761,0 4.40137,4.86347 0.93594,13.152219 -5.49881,13.152219 -1.37494,0 -3.62435,-0.910542 -4.9987,-2.023419 z M 48.604918,73.078336 c -5.599298,-1.577348 -9.142854,-6.703584 -9.142854,-13.226383 0,-4.805079 0.478158,-5.989683 3.730472,-9.241998 3.252315,-3.252314 4.436919,-3.730472 9.241998,-3.730472 6.755299,0 11.589323,3.5312 13.482022,9.848468 2.888228,9.640047 -7.225092,19.191811 -17.311638,16.350385 z"
       id="path836" />
  </g>
</svg>
