<?xml version="1.0" encoding="UTF-8" standalone="no"?>
<!-- Created with Inkscape (http://www.inkscape.org/) -->

<svg
   width="55mm"
   height="55mm"
   viewBox="0 0 207.87401 207.87401"
   version="1.1"
   id="svg5"
   xmlns="http://www.w3.org/2000/svg"
   xmlns:svg="http://www.w3.org/2000/svg">
  <defs
     id="defs2" />
  <g
     id="layer1">
    <path
       style="fill:#2a2d92;fill-opacity:1;stroke-width:0.934962"
       d="M 38.321844,140.82843 C 37.031659,137.48077 14.966848,86.362644 9.555511,74.184704 c -1.8447437,-4.1515 -4.1127808,-6.46687 -7.2801693,-7.43211 -5.6096422,-1.70949 -0.7769054,-2.38498 17.0630423,-2.38498 10.541688,0 19.166705,0.35021 19.166705,0.77825 0,0.42805 -1.99848,1.16434 -4.441066,1.63619 -3.798268,0.73375 -4.481415,1.20446 -4.719838,3.25216 -0.169704,1.45751 3.551859,11.27574 9.512092,25.09479 5.384975,12.485286 9.969995,22.879666 10.188933,23.098596 0.735857,0.73585 18.632124,-40.848906 19.108699,-44.402026 0.585725,-4.36692 -1.212073,-6.41945 -6.341132,-7.23962 -7.547211,-1.20684 -3.253819,-2.21834 9.415954,-2.21834 12.758736,0 15.965828,0.79811 10.985795,2.73392 -5.18307,2.01474 -7.778406,6.43969 -20.774647,35.419966 -4.310495,9.61197 -10.297353,22.94195 -13.304125,29.62219 -3.06517,6.80997 -6.082992,12.26453 -6.869331,12.41597 -0.901886,0.17368 -1.952897,-1.15811 -2.944579,-3.73123 z m 49.736189,1.26407 c 0,-0.44652 1.740814,-1.04535 3.868477,-1.33072 6.991285,-0.93774 6.843,-0.32491 7.21604,-29.82165 0.182851,-14.458556 0.03918,-29.809516 -0.319363,-34.113266 -0.614691,-7.37933 -0.80404,-7.9037 -3.324648,-9.20715 -1.470068,-0.7602 -3.745567,-1.38218 -5.056672,-1.38218 -1.311106,0 -2.383834,-0.42074 -2.383834,-0.93496 0,-0.59498 7.47969,-0.93496 20.569137,-0.93496 11.31304,0 20.56915,0.36533 20.56915,0.81185 0,0.44652 -1.74082,1.04535 -3.86848,1.33073 -7.16742,0.96135 -6.88358,-0.56957 -6.88358,37.125786 0,37.69535 -0.28384,36.16444 6.88358,37.1258 2.12766,0.28537 3.86848,0.8842 3.86848,1.33072 0,0.44652 -9.25611,0.81185 -20.56915,0.81185 -11.313021,0 -20.569137,-0.36533 -20.569137,-0.81185 z m 62.642397,0 c 0,-0.44652 1.78381,-1.05112 3.96403,-1.34355 7.43147,-0.99676 7.2555,-0.0715 7.2555,-38.15151 V 69.042414 h -5.17231 c -2.84478,0 -6.54583,0.57389 -8.22456,1.27531 -4.09432,1.71071 -7.93222,6.45815 -9.27276,11.47027 -1.81948,6.80286 -3.0215,4.26579 -3.30616,-6.97825 l -0.26436,-10.44213 h 36.02663 36.02663 v 10.75205 c 0,8.37031 -0.27789,10.75206 -1.25445,10.75206 -0.68995,0 -1.7828,-1.78812 -2.42855,-3.97359 -1.46016,-4.94174 -4.91762,-9.61549 -8.47341,-11.45426 -1.53196,-0.79221 -5.16899,-1.40146 -8.36632,-1.40146 h -5.65619 v 33.701096 33.70111 l 2.2949,2.29491 c 1.57353,1.57352 3.33691,2.29491 5.60978,2.29491 1.82317,0 3.31485,0.42072 3.31485,0.93495 0,0.59561 -7.63552,0.93496 -21.03662,0.93496 -11.57015,0 -21.03663,-0.36533 -21.03663,-0.81185 z"
       id="path1341" />
  </g>
</svg>
